<mxfile host="app.diagrams.net" modified="2022-10-13T08:42:13.886Z" agent="5.0 (Macintosh; Intel Mac OS X 10_15_7) AppleWebKit/537.36 (KHTML, like Gecko) Chrome/101.0.4951.41 Safari/537.36" etag="Vr3x-pqU_exzdo6jqSbA" version="17.4.6" type="github">
  <diagram id="3J2Hi4m6HjvJTrt6Tyxp" name="Page-1">
    <mxGraphModel dx="1577" dy="923" grid="1" gridSize="10" guides="1" tooltips="1" connect="1" arrows="1" fold="1" page="1" pageScale="1" pageWidth="827" pageHeight="1169" math="0" shadow="0">
      <root>
        <mxCell id="0" />
        <mxCell id="1" parent="0" />
        <mxCell id="3_59RrlBkz-Cef29AVEm-28" value="" style="group" vertex="1" connectable="0" parent="1">
          <mxGeometry y="310" width="800" height="670" as="geometry" />
        </mxCell>
        <mxCell id="3_59RrlBkz-Cef29AVEm-1" value="Web and Mobile Client" style="rounded=0;whiteSpace=wrap;html=1;" vertex="1" parent="3_59RrlBkz-Cef29AVEm-28">
          <mxGeometry x="280" y="590" width="240" height="80" as="geometry" />
        </mxCell>
        <mxCell id="3_59RrlBkz-Cef29AVEm-2" value="User Management Service" style="rounded=0;whiteSpace=wrap;html=1;" vertex="1" parent="3_59RrlBkz-Cef29AVEm-28">
          <mxGeometry x="200" y="430" width="160" height="80" as="geometry" />
        </mxCell>
        <mxCell id="3_59RrlBkz-Cef29AVEm-3" value="Payment Service" style="rounded=0;whiteSpace=wrap;html=1;" vertex="1" parent="3_59RrlBkz-Cef29AVEm-28">
          <mxGeometry x="440" y="430" width="160" height="80" as="geometry" />
        </mxCell>
        <mxCell id="3_59RrlBkz-Cef29AVEm-4" value="Wallet Service (Broker)" style="rounded=0;whiteSpace=wrap;html=1;" vertex="1" parent="3_59RrlBkz-Cef29AVEm-28">
          <mxGeometry x="280" y="270" width="240" height="80" as="geometry" />
        </mxCell>
        <mxCell id="3_59RrlBkz-Cef29AVEm-5" value="P2P. Service" style="rounded=0;whiteSpace=wrap;html=1;" vertex="1" parent="3_59RrlBkz-Cef29AVEm-28">
          <mxGeometry x="640" y="350" width="160" height="80" as="geometry" />
        </mxCell>
        <mxCell id="3_59RrlBkz-Cef29AVEm-6" value="Account/Audit Service" style="rounded=0;whiteSpace=wrap;html=1;" vertex="1" parent="3_59RrlBkz-Cef29AVEm-28">
          <mxGeometry x="640" y="510" width="160" height="80" as="geometry" />
        </mxCell>
        <mxCell id="3_59RrlBkz-Cef29AVEm-7" value="Referral Service" style="rounded=0;whiteSpace=wrap;html=1;" vertex="1" parent="3_59RrlBkz-Cef29AVEm-28">
          <mxGeometry y="350" width="160" height="80" as="geometry" />
        </mxCell>
        <mxCell id="3_59RrlBkz-Cef29AVEm-8" value="Crypto Service" style="rounded=0;whiteSpace=wrap;html=1;" vertex="1" parent="3_59RrlBkz-Cef29AVEm-28">
          <mxGeometry x="160" y="110" width="160" height="80" as="geometry" />
        </mxCell>
        <mxCell id="3_59RrlBkz-Cef29AVEm-9" value="Fiat Service" style="rounded=0;whiteSpace=wrap;html=1;" vertex="1" parent="3_59RrlBkz-Cef29AVEm-28">
          <mxGeometry x="440" y="110" width="160" height="80" as="geometry" />
        </mxCell>
        <mxCell id="3_59RrlBkz-Cef29AVEm-10" value="Fincra" style="ellipse;whiteSpace=wrap;html=1;rounded=0;" vertex="1" parent="3_59RrlBkz-Cef29AVEm-28">
          <mxGeometry x="670" y="120" width="120" height="60" as="geometry" />
        </mxCell>
        <mxCell id="3_59RrlBkz-Cef29AVEm-12" value="Infura" style="ellipse;whiteSpace=wrap;html=1;rounded=0;" vertex="1" parent="3_59RrlBkz-Cef29AVEm-28">
          <mxGeometry y="50" width="120" height="60" as="geometry" />
        </mxCell>
        <mxCell id="3_59RrlBkz-Cef29AVEm-14" value="Coingeko" style="ellipse;whiteSpace=wrap;html=1;rounded=0;" vertex="1" parent="3_59RrlBkz-Cef29AVEm-28">
          <mxGeometry x="160" width="120" height="60" as="geometry" />
        </mxCell>
        <mxCell id="3_59RrlBkz-Cef29AVEm-15" value="Tatum" style="ellipse;whiteSpace=wrap;html=1;rounded=0;" vertex="1" parent="3_59RrlBkz-Cef29AVEm-28">
          <mxGeometry y="175" width="120" height="60" as="geometry" />
        </mxCell>
        <mxCell id="3_59RrlBkz-Cef29AVEm-16" value="" style="endArrow=classic;startArrow=classic;html=1;rounded=0;exitX=1;exitY=1;exitDx=0;exitDy=0;entryX=0;entryY=0;entryDx=0;entryDy=0;" edge="1" parent="3_59RrlBkz-Cef29AVEm-28" source="3_59RrlBkz-Cef29AVEm-12" target="3_59RrlBkz-Cef29AVEm-8">
          <mxGeometry width="50" height="50" relative="1" as="geometry">
            <mxPoint x="490" y="100" as="sourcePoint" />
            <mxPoint x="540" y="50" as="targetPoint" />
          </mxGeometry>
        </mxCell>
        <mxCell id="3_59RrlBkz-Cef29AVEm-17" value="" style="endArrow=classic;html=1;rounded=0;exitX=1;exitY=0.5;exitDx=0;exitDy=0;entryX=0;entryY=1;entryDx=0;entryDy=0;" edge="1" parent="3_59RrlBkz-Cef29AVEm-28" source="3_59RrlBkz-Cef29AVEm-15" target="3_59RrlBkz-Cef29AVEm-8">
          <mxGeometry width="50" height="50" relative="1" as="geometry">
            <mxPoint x="490" y="100" as="sourcePoint" />
            <mxPoint x="540" y="50" as="targetPoint" />
          </mxGeometry>
        </mxCell>
        <mxCell id="3_59RrlBkz-Cef29AVEm-18" value="" style="endArrow=classic;html=1;rounded=0;exitX=0.368;exitY=-0.01;exitDx=0;exitDy=0;entryX=0.5;entryY=1;entryDx=0;entryDy=0;exitPerimeter=0;" edge="1" parent="3_59RrlBkz-Cef29AVEm-28" source="3_59RrlBkz-Cef29AVEm-8" target="3_59RrlBkz-Cef29AVEm-14">
          <mxGeometry width="50" height="50" relative="1" as="geometry">
            <mxPoint x="130" y="230" as="sourcePoint" />
            <mxPoint x="170.00000000000023" y="200" as="targetPoint" />
          </mxGeometry>
        </mxCell>
        <mxCell id="3_59RrlBkz-Cef29AVEm-19" value="" style="endArrow=classic;startArrow=classic;html=1;rounded=0;exitX=0.25;exitY=0;exitDx=0;exitDy=0;entryX=0.75;entryY=1;entryDx=0;entryDy=0;" edge="1" parent="3_59RrlBkz-Cef29AVEm-28" source="3_59RrlBkz-Cef29AVEm-4" target="3_59RrlBkz-Cef29AVEm-8">
          <mxGeometry width="50" height="50" relative="1" as="geometry">
            <mxPoint x="490" y="100" as="sourcePoint" />
            <mxPoint x="540" y="50" as="targetPoint" />
          </mxGeometry>
        </mxCell>
        <mxCell id="3_59RrlBkz-Cef29AVEm-20" value="" style="endArrow=classic;startArrow=classic;html=1;rounded=0;exitX=0.697;exitY=-0.052;exitDx=0;exitDy=0;exitPerimeter=0;" edge="1" parent="3_59RrlBkz-Cef29AVEm-28" source="3_59RrlBkz-Cef29AVEm-4">
          <mxGeometry width="50" height="50" relative="1" as="geometry">
            <mxPoint x="490" y="100" as="sourcePoint" />
            <mxPoint x="480" y="190" as="targetPoint" />
          </mxGeometry>
        </mxCell>
        <mxCell id="3_59RrlBkz-Cef29AVEm-21" value="" style="endArrow=classic;startArrow=classic;html=1;rounded=0;exitX=0.5;exitY=0;exitDx=0;exitDy=0;entryX=0.25;entryY=1;entryDx=0;entryDy=0;" edge="1" parent="3_59RrlBkz-Cef29AVEm-28" source="3_59RrlBkz-Cef29AVEm-2" target="3_59RrlBkz-Cef29AVEm-4">
          <mxGeometry width="50" height="50" relative="1" as="geometry">
            <mxPoint x="490" y="350" as="sourcePoint" />
            <mxPoint x="540" y="300" as="targetPoint" />
          </mxGeometry>
        </mxCell>
        <mxCell id="3_59RrlBkz-Cef29AVEm-22" value="" style="endArrow=classic;startArrow=classic;html=1;rounded=0;exitX=0.5;exitY=0;exitDx=0;exitDy=0;entryX=0.75;entryY=1;entryDx=0;entryDy=0;" edge="1" parent="3_59RrlBkz-Cef29AVEm-28" source="3_59RrlBkz-Cef29AVEm-3" target="3_59RrlBkz-Cef29AVEm-4">
          <mxGeometry width="50" height="50" relative="1" as="geometry">
            <mxPoint x="490" y="350" as="sourcePoint" />
            <mxPoint x="540" y="300" as="targetPoint" />
          </mxGeometry>
        </mxCell>
        <mxCell id="3_59RrlBkz-Cef29AVEm-23" value="" style="endArrow=classic;html=1;rounded=0;exitX=0;exitY=0.5;exitDx=0;exitDy=0;entryX=1;entryY=0;entryDx=0;entryDy=0;" edge="1" parent="3_59RrlBkz-Cef29AVEm-28" source="3_59RrlBkz-Cef29AVEm-5" target="3_59RrlBkz-Cef29AVEm-3">
          <mxGeometry width="50" height="50" relative="1" as="geometry">
            <mxPoint x="490" y="350" as="sourcePoint" />
            <mxPoint x="540" y="300" as="targetPoint" />
          </mxGeometry>
        </mxCell>
        <mxCell id="3_59RrlBkz-Cef29AVEm-24" value="" style="endArrow=classic;html=1;rounded=0;exitX=0;exitY=0.5;exitDx=0;exitDy=0;entryX=1;entryY=1;entryDx=0;entryDy=0;" edge="1" parent="3_59RrlBkz-Cef29AVEm-28" source="3_59RrlBkz-Cef29AVEm-6" target="3_59RrlBkz-Cef29AVEm-3">
          <mxGeometry width="50" height="50" relative="1" as="geometry">
            <mxPoint x="490" y="350" as="sourcePoint" />
            <mxPoint x="540" y="300" as="targetPoint" />
          </mxGeometry>
        </mxCell>
        <mxCell id="3_59RrlBkz-Cef29AVEm-25" value="" style="endArrow=classic;html=1;rounded=0;exitX=1;exitY=0.5;exitDx=0;exitDy=0;entryX=0.378;entryY=-0.052;entryDx=0;entryDy=0;entryPerimeter=0;" edge="1" parent="3_59RrlBkz-Cef29AVEm-28" source="3_59RrlBkz-Cef29AVEm-7" target="3_59RrlBkz-Cef29AVEm-2">
          <mxGeometry width="50" height="50" relative="1" as="geometry">
            <mxPoint x="490" y="350" as="sourcePoint" />
            <mxPoint x="540" y="300" as="targetPoint" />
          </mxGeometry>
        </mxCell>
        <mxCell id="3_59RrlBkz-Cef29AVEm-26" value="" style="endArrow=classic;html=1;rounded=0;exitX=0.5;exitY=1;exitDx=0;exitDy=0;entryX=0.25;entryY=0;entryDx=0;entryDy=0;" edge="1" parent="3_59RrlBkz-Cef29AVEm-28" source="3_59RrlBkz-Cef29AVEm-2" target="3_59RrlBkz-Cef29AVEm-1">
          <mxGeometry width="50" height="50" relative="1" as="geometry">
            <mxPoint x="490" y="370" as="sourcePoint" />
            <mxPoint x="540" y="320" as="targetPoint" />
          </mxGeometry>
        </mxCell>
        <mxCell id="3_59RrlBkz-Cef29AVEm-11" value="" style="edgeStyle=orthogonalEdgeStyle;rounded=0;orthogonalLoop=1;jettySize=auto;html=1;" edge="1" parent="3_59RrlBkz-Cef29AVEm-28" source="3_59RrlBkz-Cef29AVEm-9" target="3_59RrlBkz-Cef29AVEm-10">
          <mxGeometry relative="1" as="geometry" />
        </mxCell>
        <mxCell id="3_59RrlBkz-Cef29AVEm-27" value="" style="endArrow=classic;html=1;rounded=0;exitX=0.5;exitY=1;exitDx=0;exitDy=0;entryX=0.75;entryY=0;entryDx=0;entryDy=0;" edge="1" parent="3_59RrlBkz-Cef29AVEm-28" source="3_59RrlBkz-Cef29AVEm-3" target="3_59RrlBkz-Cef29AVEm-1">
          <mxGeometry width="50" height="50" relative="1" as="geometry">
            <mxPoint x="490" y="370" as="sourcePoint" />
            <mxPoint x="540" y="320" as="targetPoint" />
          </mxGeometry>
        </mxCell>
      </root>
    </mxGraphModel>
  </diagram>
</mxfile>
